<?xml version="1.0" encoding="iso-8859-1"?>
<!-- Generator: Adobe Illustrator 18.0.0, SVG Export Plug-In . SVG Version: 6.00 Build 0)  -->
<!DOCTYPE svg PUBLIC "-//W3C//DTD SVG 1.0//EN" "http://www.w3.org/TR/2001/REC-SVG-20010904/DTD/svg10.dtd">
<svg version="1.0" id="Layer_1" xmlns="http://www.w3.org/2000/svg" xmlns:xlink="http://www.w3.org/1999/xlink" x="0px" y="0px"
	 viewBox="0 0 2907 806" style="enable-background:new 0 0 2907 806;" xml:space="preserve">
<style type="text/css">
	.st0{fill:#CCFF00;}
	.st1{fill:#EC0D8B;}
</style>
<g>
	<path class="st0" d="M1259.721,338.105c-3.581,7.162-8.501,13.862-14.741,20.104L920.651,638.308h212.269
		c0,27.704-9.611,51.158-28.815,70.359c-19.223,19.225-42.214,28.815-69.018,28.815H777.251c-7.162,0-13.633-1.341-19.432-4.019
		c-5.823-2.683-10.512-6.242-14.074-10.722c-4.479-5.361-7.6-10.721-9.38-16.082c-1.801-5.361-2.68-10.722-2.68-16.082
		c0-8.923,1.78-17.193,5.361-24.795c3.56-7.579,8.92-14.512,16.082-20.774l333.707-282.779H752.407
		c0-26.804,9.59-49.588,28.815-68.349c19.201-18.765,41.754-28.145,67.679-28.145h369.275c7.141,0,13.609,1.341,19.432,4.019
		c5.799,2.683,10.931,6.261,15.411,10.722c3.562,5.361,6.471,10.722,8.713,16.082c2.218,5.361,3.35,11.184,3.35,17.424
		C1265.081,322.923,1263.28,330.964,1259.721,338.105z"/>
</g>
<g>
	<path class="st0" d="M1777.45,721.54c-31.93,0-58.166-2.702-78.721-8.117c-20.569-5.401-36.926-13.111-49.1-23.127
		c-12.174-10.005-20.694-22.18-25.563-36.522c-4.87-14.329-7.305-30.433-7.305-48.288v-41.389c0-18.387,2.295-34.757,6.898-49.099
		c4.591-14.331,12.579-26.504,23.941-36.522c11.363-10.003,26.909-17.574,46.666-22.722c19.743-5.135,44.762-7.71,75.068-7.71
		h288.462v-9.738c0-28.126-5.679-46.932-17.041-56.403c-11.362-9.46-30.573-14.203-57.62-14.203h-236.182v0
		c0-47.51,38.515-86.025,86.025-86.025h150.157c35.162,0,65.05,3.246,89.678,9.738c24.612,6.493,44.762,16.371,60.46,29.623
		c15.685,13.264,27.186,30.027,34.492,50.316c7.303,20.289,10.955,44.509,10.955,72.635v107.124c0,31.929-3.119,58.711-9.334,80.345
		c-6.225,21.645-17.041,39.235-32.461,52.75c-15.42,13.531-35.987,23.13-61.677,28.812c-25.704,5.68-58.029,8.521-96.981,8.521
		H1777.45z M2057.796,522.709h-275.476c-14.076,0-25.158,3.119-33.275,9.331c-8.115,6.228-12.172,17.994-12.172,35.302v30.029
		c0,15.698,4.323,26.514,12.984,32.461c8.649,5.96,20.821,8.927,36.521,8.927h190.264c14.062,0,26.235-1.078,36.521-3.245
		c10.27-2.156,18.665-6.089,25.158-11.768c6.493-5.682,11.362-13.657,14.607-23.941c3.248-10.273,4.869-23.537,4.869-39.767V522.709
		z"/>
	<path class="st0" d="M2486.287,728.781c-40.578,0-74.401-3.373-101.448-10.144c-27.06-6.758-48.695-17.576-64.925-32.461
		c-16.231-14.874-27.731-34.353-34.492-58.435c-6.771-24.066-10.145-53.689-10.145-88.863V54.464l0,0
		c66.784,0,120.923,54.139,120.923,120.923v113.53h207.309c41.108,0,75.195,3.385,102.258,10.144
		c27.047,6.771,48.689,17.588,64.923,32.463c16.233,14.886,27.721,34.49,34.489,58.838c6.763,24.346,10.145,54.108,10.145,89.27
		v59.246c0,35.174-3.382,64.797-10.145,88.863c-6.768,24.082-18.256,43.561-34.489,58.435
		c-16.233,14.885-37.876,25.704-64.923,32.461c-27.063,6.771-61.15,10.144-102.258,10.144H2486.287z M2694.404,483.69
		c0-18.931-1.359-34.351-4.055-46.257c-2.718-11.895-7.587-21.101-14.612-27.594c-7.036-6.493-16.774-10.956-29.213-13.391
		c-12.451-2.434-28.138-3.652-47.073-3.652h-203.248V536.44c0,17.854,1.343,32.603,4.058,44.232
		c2.699,11.64,7.571,20.832,14.61,27.592c7.025,6.771,16.635,11.501,28.807,14.203c12.177,2.713,27.721,4.056,46.667,4.056h109.106
		c18.935,0,34.623-1.343,47.073-4.056c12.44-2.702,22.177-7.432,29.213-14.203c7.025-6.76,11.894-15.952,14.612-27.592
		c2.697-11.629,4.055-26.643,4.055-45.043V483.69z"/>
	<path class="st0" d="M1517.102,728.781L1517.102,728.781l0-674.317h0c-67.68,0-122.546,54.866-122.546,122.546v429.226
		C1394.557,673.916,1449.422,728.781,1517.102,728.781z"/>
</g>
<path class="st0" d="M509.536,260.054l0,311.158L198.378,260.054H28.673l432.381,432.381
	c62.174,62.174,168.482,18.14,168.482-69.788l0-316.315c0-25.559-20.719-46.278-46.278-46.278H509.536z"/>
<path class="st1" d="M1272.722,626.685h-45.272c-15.109,0-27.357,12.248-27.357,27.357v45.272c0,15.109,12.248,27.357,27.357,27.357
	h45.272c15.109,0,27.357-12.248,27.357-27.357v-45.272C1300.079,638.933,1287.831,626.685,1272.722,626.685z"/>
<g>
	<g>
		<path class="st0" d="M730.637-28.158c0,1.754,0,3.509,0,5.263c0,1.935,3,1.935,3,0c0-1.754,0-3.509,0-5.263
			C733.637-30.092,730.637-30.092,730.637-28.158L730.637-28.158z"/>
	</g>
</g>
</svg>
